<?xml version="1.0" encoding="utf-8"?>
<!-- Generator: Adobe Illustrator 23.0.3, SVG Export Plug-In . SVG Version: 6.00 Build 0)  -->
<svg version="1.1" id="Icons" xmlns="http://www.w3.org/2000/svg" xmlns:xlink="http://www.w3.org/1999/xlink" x="0px" y="0px"
	 viewBox="0 0 32 32" style="enable-background:new 0 0 32 32;" xml:space="preserve">
<path d="M19,2H5C3.3,2,2,3.3,2,5v17c0,0.4,0.2,0.7,0.5,0.9C2.7,23,2.8,23,3,23c0.2,0,0.4-0.1,0.5-0.2L11,18h8c1.7,0,3-1.3,3-3V5
	C22,3.3,20.7,2,19,2z M10,13H8c-0.6,0-1-0.4-1-1s0.4-1,1-1h2c0.6,0,1,0.4,1,1S10.6,13,10,13z M13,9H8C7.4,9,7,8.6,7,8s0.4-1,1-1h5
	c0.6,0,1,0.4,1,1S13.6,9,13,9z"/>
<path d="M27,9h-3v6c0,2.8-2.2,5-5,5h-7.4L10,21v1c0,1.7,1.3,3,3,3h8l7.5,4.8c0.2,0.1,0.4,0.2,0.5,0.2c0.2,0,0.3,0,0.5-0.1
	c0.3-0.2,0.5-0.5,0.5-0.9V12C30,10.3,28.7,9,27,9z"/>
</svg>
